<mxfile host="app.diagrams.net" modified="2023-12-18T18:25:26.964Z" agent="Mozilla/5.0 (Windows NT 10.0; Win64; x64) AppleWebKit/537.36 (KHTML, like Gecko) Chrome/120.0.0.0 Safari/537.36" etag="9NlOl0SSOKQBev1lAXU1" version="22.1.11" type="device">
  <diagram name="Page-1" id="fa6Lr0o27nwmhWaJbWOe">
    <mxGraphModel dx="1461" dy="725" grid="1" gridSize="10" guides="1" tooltips="1" connect="1" arrows="1" fold="1" page="1" pageScale="1" pageWidth="850" pageHeight="1100" math="0" shadow="0">
      <root>
        <mxCell id="0" />
        <mxCell id="1" parent="0" />
        <mxCell id="jafpBCZBxu4MRj6mP-v--3" value="" style="edgeStyle=orthogonalEdgeStyle;rounded=0;orthogonalLoop=1;jettySize=auto;html=1;" parent="1" source="jafpBCZBxu4MRj6mP-v--1" target="jafpBCZBxu4MRj6mP-v--2" edge="1">
          <mxGeometry relative="1" as="geometry" />
        </mxCell>
        <mxCell id="jafpBCZBxu4MRj6mP-v--1" value="Return to base" style="rounded=1;whiteSpace=wrap;html=1;arcSize=50;" parent="1" vertex="1">
          <mxGeometry x="210" y="100" width="120" height="30" as="geometry" />
        </mxCell>
        <mxCell id="jafpBCZBxu4MRj6mP-v--5" value="" style="edgeStyle=orthogonalEdgeStyle;rounded=0;orthogonalLoop=1;jettySize=auto;html=1;" parent="1" source="jafpBCZBxu4MRj6mP-v--2" target="jafpBCZBxu4MRj6mP-v--4" edge="1">
          <mxGeometry relative="1" as="geometry" />
        </mxCell>
        <mxCell id="jafpBCZBxu4MRj6mP-v--2" value="Turn right&lt;br&gt;(90 degrees)" style="shape=process;whiteSpace=wrap;html=1;backgroundOutline=1;" parent="1" vertex="1">
          <mxGeometry x="220" y="150" width="100" height="40" as="geometry" />
        </mxCell>
        <mxCell id="jafpBCZBxu4MRj6mP-v--9" value="" style="edgeStyle=orthogonalEdgeStyle;rounded=0;orthogonalLoop=1;jettySize=auto;html=1;" parent="1" source="jafpBCZBxu4MRj6mP-v--4" target="jafpBCZBxu4MRj6mP-v--8" edge="1">
          <mxGeometry relative="1" as="geometry" />
        </mxCell>
        <mxCell id="jafpBCZBxu4MRj6mP-v--4" value="Follow the line for the total driven distance&amp;nbsp;" style="shape=process;whiteSpace=wrap;html=1;backgroundOutline=1;" parent="1" vertex="1">
          <mxGeometry x="200" y="210" width="140" height="60" as="geometry" />
        </mxCell>
        <mxCell id="jafpBCZBxu4MRj6mP-v--7" style="edgeStyle=orthogonalEdgeStyle;rounded=0;orthogonalLoop=1;jettySize=auto;html=1;exitX=1;exitY=0.5;exitDx=0;exitDy=0;entryX=0;entryY=0.5;entryDx=0;entryDy=0;" parent="1" source="jafpBCZBxu4MRj6mP-v--6" target="jafpBCZBxu4MRj6mP-v--4" edge="1">
          <mxGeometry relative="1" as="geometry" />
        </mxCell>
        <mxCell id="jafpBCZBxu4MRj6mP-v--6" value="Total driven distance&amp;nbsp;" style="shape=parallelogram;perimeter=parallelogramPerimeter;whiteSpace=wrap;html=1;fixedSize=1;" parent="1" vertex="1">
          <mxGeometry x="30" y="225" width="150" height="30" as="geometry" />
        </mxCell>
        <mxCell id="jafpBCZBxu4MRj6mP-v--13" style="edgeStyle=orthogonalEdgeStyle;rounded=0;orthogonalLoop=1;jettySize=auto;html=1;entryX=0.5;entryY=0;entryDx=0;entryDy=0;" parent="1" source="jafpBCZBxu4MRj6mP-v--18" target="jafpBCZBxu4MRj6mP-v--12" edge="1">
          <mxGeometry relative="1" as="geometry">
            <mxPoint x="260" y="390" as="sourcePoint" />
          </mxGeometry>
        </mxCell>
        <mxCell id="jafpBCZBxu4MRj6mP-v--19" value="" style="edgeStyle=orthogonalEdgeStyle;rounded=0;orthogonalLoop=1;jettySize=auto;html=1;" parent="1" source="jafpBCZBxu4MRj6mP-v--8" target="jafpBCZBxu4MRj6mP-v--18" edge="1">
          <mxGeometry relative="1" as="geometry" />
        </mxCell>
        <mxCell id="jafpBCZBxu4MRj6mP-v--8" value="Turn around&lt;br&gt;(180 degrees)" style="shape=process;whiteSpace=wrap;html=1;backgroundOutline=1;" parent="1" vertex="1">
          <mxGeometry x="210" y="290" width="120" height="40" as="geometry" />
        </mxCell>
        <mxCell id="jafpBCZBxu4MRj6mP-v--12" value="Return" style="ellipse;whiteSpace=wrap;html=1;aspect=fixed;" parent="1" vertex="1">
          <mxGeometry x="240" y="410" width="60" height="60" as="geometry" />
        </mxCell>
        <mxCell id="jafpBCZBxu4MRj6mP-v--18" value="Set variable stage to 3" style="shape=parallelogram;perimeter=parallelogramPerimeter;whiteSpace=wrap;html=1;fixedSize=1;" parent="1" vertex="1">
          <mxGeometry x="190" y="350" width="160" height="40" as="geometry" />
        </mxCell>
      </root>
    </mxGraphModel>
  </diagram>
</mxfile>
